<svg width="297" height="218" viewBox="0 0 297 218" fill="none" xmlns="http://www.w3.org/2000/svg">
<g clip-path="url(#clip0_1371_5730)">
<path d="M231.834 217.879H37.6559C19.5233 217.879 4.79492 203.065 4.79492 184.827V33.0521C4.79492 14.814 19.5233 0 37.6559 0H231.834C249.966 0 264.694 14.814 264.694 33.0521V184.756C264.694 203.065 249.966 217.879 231.834 217.879Z" fill="white"/>
<path d="M231.829 217.879H37.6505C19.5179 217.879 4.78955 203.065 4.78955 184.827V33.0521C4.78955 14.814 19.5179 0 37.6505 0H231.829C249.961 0 264.689 14.814 264.689 33.0521V184.756C264.689 203.065 249.961 217.879 231.829 217.879Z" fill="#141324" fill-opacity="0.6"/>
<path d="M270.184 133.956C273.031 136.821 274.351 140.733 274.213 144.717C274.143 146.603 276.227 147.791 277.826 146.743C278.798 146.114 279.702 145.346 280.604 144.437C286.927 138.078 287.413 128.225 281.647 122.426C275.881 116.626 266.084 117.115 259.763 123.474C258.929 124.312 258.164 125.291 257.47 126.269C256.428 127.876 257.539 130.042 259.484 129.902C263.444 129.763 267.265 131.091 270.184 133.956Z" fill="#E84545"/>
<path d="M270.184 133.956C273.031 136.821 274.351 140.733 274.213 144.717C274.143 146.603 276.227 147.791 277.826 146.743C278.798 146.114 279.702 145.346 280.604 144.437C286.927 138.078 287.413 128.225 281.647 122.426C275.881 116.626 266.084 117.115 259.763 123.474C258.929 124.312 258.164 125.291 257.47 126.269C256.428 127.876 257.539 130.042 259.484 129.902C263.444 129.763 267.265 131.091 270.184 133.956Z" fill="#141324" fill-opacity="0.2"/>
<path d="M270.184 133.956C273.031 136.821 274.351 140.733 274.213 144.717C274.143 146.603 276.227 147.791 277.826 146.743C278.798 146.114 279.702 145.346 280.604 144.437C286.927 138.078 287.413 128.225 281.647 122.426C275.881 116.626 266.084 117.115 259.763 123.474C258.929 124.312 258.164 125.291 257.47 126.269C256.428 127.876 257.539 130.042 259.484 129.902C263.444 129.763 267.265 131.091 270.184 133.956Z" fill="#E84545"/>
<path d="M270.184 133.956C273.031 136.821 274.351 140.733 274.213 144.717C274.143 146.603 276.227 147.791 277.826 146.743C278.798 146.114 279.702 145.346 280.604 144.437C286.927 138.078 287.413 128.225 281.647 122.426C275.881 116.626 266.084 117.115 259.763 123.474C258.929 124.312 258.164 125.291 257.47 126.269C256.428 127.876 257.539 130.042 259.484 129.902C263.444 129.763 267.265 131.091 270.184 133.956Z" fill="#141324" fill-opacity="0.2"/>
<path d="M270.184 133.956C273.031 136.821 274.351 140.733 274.213 144.717C274.143 146.603 276.227 147.791 277.826 146.743C278.798 146.114 279.702 145.346 280.604 144.437C286.927 138.078 287.413 128.225 281.647 122.426C275.881 116.626 266.084 117.115 259.763 123.474C258.929 124.312 258.164 125.291 257.47 126.269C256.428 127.876 257.539 130.042 259.484 129.902C263.444 129.763 267.265 131.091 270.184 133.956Z" fill="#E84545"/>
<path d="M270.184 133.956C273.031 136.821 274.351 140.733 274.213 144.717C274.143 146.603 276.227 147.791 277.826 146.743C278.798 146.114 279.702 145.346 280.604 144.437C286.927 138.078 287.413 128.225 281.647 122.426C275.881 116.626 266.084 117.115 259.763 123.474C258.929 124.312 258.164 125.291 257.47 126.269C256.428 127.876 257.539 130.042 259.484 129.902C263.444 129.763 267.265 131.091 270.184 133.956Z" fill="#141324" fill-opacity="0.2"/>
<path d="M270.115 129.274C276.1 129.274 280.953 124.393 280.953 118.373C280.953 112.352 276.1 107.472 270.115 107.472C264.129 107.472 259.277 112.352 259.277 118.373C259.277 124.393 264.129 129.274 270.115 129.274Z" fill="#E84545"/>
<path d="M270.115 129.274C276.1 129.274 280.953 124.393 280.953 118.373C280.953 112.352 276.1 107.472 270.115 107.472C264.129 107.472 259.277 112.352 259.277 118.373C259.277 124.393 264.129 129.274 270.115 129.274Z" fill="#141324" fill-opacity="0.2"/>
<path d="M298.041 118.373C298.041 109.359 291.442 102.092 283.312 102.092C275.184 102.092 268.584 109.359 268.584 118.373C268.584 119.631 268.724 120.819 268.932 121.937C269.349 123.823 271.642 124.522 272.892 123.125C275.532 120.19 279.214 118.373 283.312 118.373C287.342 118.373 291.025 120.19 293.734 123.125C294.984 124.522 297.346 123.823 297.694 121.937" fill="#E84545"/>
<path d="M298.041 118.373C298.041 109.359 291.442 102.092 283.312 102.092C275.184 102.092 268.584 109.359 268.584 118.373C268.584 119.631 268.724 120.819 268.932 121.937C269.349 123.823 271.642 124.522 272.892 123.125C275.532 120.19 279.214 118.373 283.312 118.373C287.342 118.373 291.025 120.19 293.734 123.125C294.984 124.522 297.346 123.823 297.694 121.937" fill="#141324" fill-opacity="0.2"/>
<path d="M298.041 118.373C298.041 109.359 291.442 102.092 283.312 102.092C275.184 102.092 268.584 109.359 268.584 118.373C268.584 119.631 268.724 120.819 268.932 121.937C269.349 123.823 271.642 124.522 272.892 123.125C275.532 120.19 279.214 118.373 283.312 118.373C287.342 118.373 291.025 120.19 293.734 123.125C294.984 124.522 297.346 123.823 297.694 121.937" fill="#E84545"/>
<path d="M298.041 118.373C298.041 109.359 291.442 102.092 283.312 102.092C275.184 102.092 268.584 109.359 268.584 118.373C268.584 119.631 268.724 120.819 268.932 121.937C269.349 123.823 271.642 124.522 272.892 123.125C275.532 120.19 279.214 118.373 283.312 118.373C287.342 118.373 291.025 120.19 293.734 123.125C294.984 124.522 297.346 123.823 297.694 121.937" fill="#141324" fill-opacity="0.2"/>
<path d="M298.041 118.373C298.041 109.359 291.442 102.092 283.312 102.092C275.184 102.092 268.584 109.359 268.584 118.373C268.584 119.631 268.724 120.819 268.932 121.937C269.349 123.823 271.642 124.522 272.892 123.125C275.532 120.19 279.214 118.373 283.312 118.373C287.342 118.373 291.025 120.19 293.734 123.125C294.984 124.522 297.346 123.823 297.694 121.937" fill="#E84545"/>
<path d="M298.041 118.373C298.041 109.359 291.442 102.092 283.312 102.092C275.184 102.092 268.584 109.359 268.584 118.373C268.584 119.631 268.724 120.819 268.932 121.937C269.349 123.823 271.642 124.522 272.892 123.125C275.532 120.19 279.214 118.373 283.312 118.373C287.342 118.373 291.025 120.19 293.734 123.125C294.984 124.522 297.346 123.823 297.694 121.937" fill="#141324" fill-opacity="0.2"/>
<path d="M268.584 85.2515H0V163.654H268.584V85.2515Z" fill="#E84545"/>
<path d="M104.418 143.319H78.4347C73.641 143.319 69.7505 139.965 69.7505 135.842V115.997C69.7505 110.966 75.3778 107.402 80.9356 108.869L106.919 115.577C110.601 116.556 113.102 119.421 113.102 122.705V135.842C113.102 139.965 109.212 143.319 104.418 143.319Z" fill="white"/>
<path d="M268.586 85.5308H178.062V163.933H268.586V85.5308Z" fill="#E84545"/>
<path d="M268.586 85.5308H178.062V163.933H268.586V85.5308Z" fill="#141324" fill-opacity="0.2"/>
<path d="M190.667 143.779H164.684C159.89 143.779 156 140.425 156 136.301V123.164C156 119.881 158.5 116.945 162.183 116.037L188.166 109.329C193.723 107.862 199.351 111.495 199.351 116.456V136.301C199.351 140.425 195.461 143.779 190.667 143.779Z" fill="white"/>
<path opacity="0.3" d="M134.709 85.2508H264.624V33.3317C264.624 14.9539 249.757 0 231.486 0H134.709V85.2508Z" fill="#141324" fill-opacity="0.4"/>
<path opacity="0.3" d="M134.709 217.878H231.763C249.966 217.878 264.694 203.064 264.694 184.755V163.653H134.778L134.709 217.878Z" fill="#141324" fill-opacity="0.4"/>
</g>
<defs>
<clipPath id="clip0_1371_5730">
<rect width="297" height="218" fill="white"/>
</clipPath>
</defs>
</svg>
